<svg version="1.2" xmlns="http://www.w3.org/2000/svg" viewBox="0 0 298 298" width="298" height="298">
	<title>TU-Berlin-Logo-svg</title>
	<style>
		.s0 { fill: #990000 } 
	</style>
	<g id="layer1">
		<g id="g3560">
			<path id="path2702" fill-rule="evenodd" class="s0" d="m226.5 59h67.5l-12.5 130c-1.6 37.7-32.7 67.9-70.9 67.9h-3.2zm58.3 43.6h-40.5l-0.8 8.6h40.4zm-30.4-11.6h-9.3l-0.9 8.6h9.3zm31.6 0h-29.1l-0.9 8.6h29.1zm-48.4 89.6h24.9c9.5 0 15.7-5.4 16.4-13.1 0.6-6.6-4.3-12.6-14.3-12.6-7.5 0-15.4 4.8-16 11.4-0.3 2.5 0.4 3.7 1.3 5.4h-11.5zm30.3-49.5c2.7 1.9 4.4 5.7 4.2 8.2-0.1 0.8-0.3 1.9-0.8 2.6l-10.1-12.4c-5.8 2-9.8 6.2-10.3 11.7-0.7 6.8 4.7 12.5 14.7 12.5 8 0 15.1-5.3 15.8-12.8 0.4-4.5-0.4-6.7-2.7-10.4zm-10.8-43.9h29.1l0.9-8.8h-17.2c-1.3 0-3.5-0.4-3.5-2.2 0-1.8 1.9-2.3 3-2.3h18.2l0.8-8.7h-19.3c-5.6 0-10.8 2.2-11.2 6.7-0.2 2.2 1.1 4.9 3.9 6.7v0.2h-3.9zm25.4 39.9l0.8-8.6h-13.9c-3.9 0-5.5-1.9-5.3-4.1 0.1-0.7 0.1-1 0.2-1.4h-10.7c-0.3 3.2 1.4 5.3 4.9 5.9v0.1h-4.7l-0.7 8.1zm-18.9 44.4c-2.5 0-4.5-1.5-4.5-3.5 0-2 2-3.6 4.5-3.6 2.6 0 4.6 1.6 4.6 3.6 0 2-2 3.5-4.6 3.5zm2.6-26.9c-0.5 0.2-0.8 0.3-2.1 0.3-2.5 0-4.8-1.5-4.6-3.7 0.1-1.1 0.5-2.1 1.7-2.8z"/>
			<path id="path2704" class="s0" d="m216.9 77.8l-17.1 178.4c-38.2-6.7-63.9-26.5-60.4-63.4l-0.1-0.1 8.2-85.2h-110.5c-18.3-0.1-33-15-33-33.2 0-18.3 14.7-33.1 33-33.3h147c18.3 0.1 33.1 14.9 33.1 33.3q0 1.8-0.2 3.5z"/>
			<path id="path2706" class="s0" d="m71.6 114.8h60.7l-12 124.3h-60.7z"/>
		</g>
	</g>
</svg>